<svg width="35" height="35" viewBox="0 0 35 35" fill="none" xmlns="http://www.w3.org/2000/svg">
<path d="M17.5 2.91675C9.45871 2.91675 2.91663 9.45883 2.91663 17.5001C2.91663 25.5413 9.45871 32.0834 17.5 32.0834C25.5412 32.0834 32.0833 25.5413 32.0833 17.5001C32.0833 9.45883 25.5412 2.91675 17.5 2.91675ZM17.5 29.1667C11.0673 29.1667 5.83329 23.9328 5.83329 17.5001C5.83329 11.0674 11.0673 5.83341 17.5 5.83341C23.9327 5.83341 29.1666 11.0674 29.1666 17.5001C29.1666 23.9328 23.9327 29.1667 17.5 29.1667Z" fill="black"/>
<path d="M16.0416 16.0417H18.9583V24.7917H16.0416V16.0417ZM16.0416 10.2084H18.9583V13.125H16.0416V10.2084Z" fill="black"/>
</svg>
