<svg width="25" height="25" viewBox="0 0 25 25" fill="none" xmlns="http://www.w3.org/2000/svg">
<path d="M3.125 3.125H21.875V21.875H3.125V3.125ZM20.3385 17.4031C20.2021 16.5479 19.6448 15.8292 17.9927 15.1583C17.4177 14.8885 16.7792 14.7021 16.5875 14.2687C16.5167 14.0104 16.5062 13.8708 16.5521 13.7177C16.6698 13.2135 17.2677 13.0625 17.7365 13.2021C18.0417 13.2958 18.3229 13.5302 18.499 13.9062C19.3062 13.3781 19.3062 13.3781 19.8698 13.0271C19.6583 12.7 19.5531 12.5573 19.4125 12.4167C18.9198 11.8667 18.2635 11.5854 17.1979 11.6094L16.6479 11.6792C16.1198 11.8083 15.6156 12.0906 15.3115 12.4646C14.4208 13.4729 14.6781 15.2302 15.7563 15.9583C16.8219 16.7552 18.3823 16.9302 18.5812 17.6802C18.7687 18.5948 17.9021 18.8875 17.0448 18.7823C16.4125 18.6406 16.0604 18.325 15.674 17.7385L14.2448 18.5594C14.4083 18.9333 14.5958 19.0979 14.8771 19.426C16.2365 20.7969 19.6354 20.7271 20.2448 18.6406C20.2667 18.5708 20.4323 18.0906 20.3031 17.3521L20.3385 17.4031ZM13.3208 11.7427H11.5646C11.5646 13.2562 11.5573 14.7615 11.5573 16.2781C11.5573 17.2406 11.6062 18.124 11.449 18.3958C11.1917 18.9344 10.526 18.8656 10.225 18.7698C9.91562 18.6177 9.75833 18.4062 9.57604 18.1021C9.52708 18.0208 9.49062 17.95 9.47708 17.95L8.05208 18.8292C8.29062 19.3219 8.63854 19.7448 9.0875 20.0135C9.75521 20.4125 10.6521 20.5417 11.5917 20.3312C12.2042 20.1542 12.7323 19.7906 13.0062 19.2281C13.4062 18.5021 13.3208 17.6104 13.3177 16.6146C13.326 15.0094 13.3177 13.4031 13.3177 11.7865L13.3208 11.7427Z" fill="#F0DB4F"/>
</svg>
